<svg id="visual" viewBox="0 0 960 540" width="960" height="540" xmlns="http://www.w3.org/2000/svg" xmlns:xlink="http://www.w3.org/1999/xlink" version="1.1"><rect x="0" y="0" width="960" height="540" fill="#d7cec7"></rect><g transform="translate(-86.90135362455138 -4.6518592334838615)"><path d="M199.1 -301.5C264.2 -268 327.2 -223.1 416.2 -153.4C505.1 -83.6 620 11 604.9 84C589.7 156.9 444.5 208.1 347 275.7C249.6 343.4 199.9 427.4 141.3 413.8C82.7 400.3 15.2 289.2 -43.7 233.3C-102.6 177.5 -153 176.8 -225.9 158.9C-298.9 140.9 -394.4 105.7 -422.7 47.9C-451 -9.8 -412 -90.1 -377.9 -175.8C-343.8 -261.6 -314.6 -352.9 -252.5 -387.7C-190.3 -422.5 -95.2 -400.7 -14.1 -378.9C67 -357 134.1 -335 199.1 -301.5" fill="#b63030"></path></g></svg>